<svg width="63" height="63" viewBox="0 0 63 63" fill="none" xmlns="http://www.w3.org/2000/svg">
<path d="M31.5 0C14.112 0 0 14.112 0 31.5C0 48.888 14.112 63 31.5 63C48.888 63 63 48.888 63 31.5C63 14.112 48.888 0 31.5 0ZM20.5695 36.1305C21.483 37.044 21.483 38.556 20.5695 39.4695C20.097 39.942 19.4985 40.1625 18.9 40.1625C18.3015 40.1625 17.703 39.942 17.2305 39.4695L10.9305 33.1695C10.017 32.256 10.017 30.744 10.9305 29.8305L17.2305 23.5305C18.144 22.617 19.656 22.617 20.5695 23.5305C21.483 24.444 21.483 25.956 20.5695 26.8695L15.939 31.5L20.5695 36.1305ZM36.8235 25.074L30.5235 39.7845C30.1455 40.6665 29.2635 41.202 28.35 41.202C28.035 41.202 27.72 41.139 27.4365 41.013C26.2395 40.509 25.6725 39.123 26.208 37.8945L32.508 23.184C33.012 21.987 34.398 21.42 35.595 21.9555C36.792 22.491 37.3275 23.877 36.8235 25.074ZM52.0695 33.1695L45.7695 39.4695C45.297 39.942 44.6985 40.1625 44.1 40.1625C43.5015 40.1625 42.903 39.942 42.4305 39.4695C41.517 38.556 41.517 37.044 42.4305 36.1305L47.061 31.5L42.4305 26.8695C41.517 25.956 41.517 24.444 42.4305 23.5305C43.344 22.617 44.856 22.617 45.7695 23.5305L52.0695 29.8305C52.983 30.744 52.983 32.256 52.0695 33.1695Z" fill="white"/>
</svg>
