<?xml version="1.0" encoding="UTF-8"?>
<svg id="Layer_1" xmlns="http://www.w3.org/2000/svg" version="1.1" viewBox="0 0 63 63">
  <!-- Generator: Adobe Illustrator 29.5.0, SVG Export Plug-In . SVG Version: 2.1.0 Build 137)  -->
  <defs>
    <style>
      .st0 {
        fill: #f6a02a;
      }
    </style>
  </defs>
  <path class="st0" d="M31.58,38.92c.3-.12.48-.2.67-.28,1.4-.55,2.8-1.1,4.19-1.66.27-.11.49-.1.75.02,2.19,1.03,4.36,2.12,6.48,3.29.33.18.66.36.99.54,1.77.94,3.21,2.21,4.21,3.96.77,1.34,1.15,2.8,1.3,4.33.22,2.27-.41,4.32-1.53,6.24-.78,1.33-1.91,2.36-3.21,3.18-1.34.84-2.81,1.33-4.39,1.5-2.02.22-3.93-.16-5.73-1.07-3-1.51-6-3.03-9-4.55-1.83-.93-3.65-1.85-5.47-2.79-.17-.08-.33-.18-.48-.29-.41-.29-.6-.69-.63-1.2-.05-.92.16-1.75.73-2.48.12-.15.25-.28.38-.41.18-.17.4-.2.62-.09.17.08.34.16.51.25,4.15,2.11,8.3,4.23,12.45,6.34,1,.51,2.02,1.01,3.03,1.5.8.39,1.65.62,2.55.62,1.86-.01,3.38-.77,4.58-2.18.88-1.04,1.38-2.25,1.4-3.61.03-2.19-.88-3.95-2.74-5.12-1.21-.76-2.48-1.41-3.75-2.06-2.43-1.24-4.87-2.44-7.31-3.65-.17-.08-.33-.18-.6-.32Z"/>
  <path class="st0" d="M30.26,57.64c-.82.71-1.62,1.22-2.5,1.62-3.5,1.58-7.8,1.15-10.9-1.5-2-1.71-3.2-3.88-3.52-6.48-.31-2.59.18-5.02,1.72-7.17,1.76-2.46,4.15-3.92,7.16-4.34,1.99-.27,3.9.03,5.7.92,1.97.97,3.93,1.98,5.89,2.97,1.83.92,3.66,1.85,5.48,2.77,1.21.61,2.4,1.24,3.61,1.85.67.33.93.87.94,1.59.01,1.03-.34,1.9-1.06,2.64-.26.26-.53.33-.86.17-.24-.12-.48-.22-.71-.34-3.12-1.58-6.23-3.17-9.35-4.74-.92-.47-1.86-.9-2.78-1.37-.85-.43-1.71-.87-2.54-1.33-.85-.47-1.77-.73-2.73-.84-.7-.08-1.39.05-2.05.26-1.96.62-3.99,2.39-4.16,5.23-.14,2.33,1.02,4.63,3.49,5.75,1.36.61,2.76.7,4.17.24.42-.13.75-.09,1.12.11,1.1.58,2.21,1.13,3.31,1.69.16.08.32.18.56.32Z"/>
  <path d="M30.03,38.87c.22.12.38.21.55.29.69.35,1.37.7,2.07,1.03.25.12.38.28.37.56-.01.45,0,.9,0,1.35,0,.09-.03.18-.06.32-.73-.21-1.34-.62-1.99-.94-.66-.32-1.3-.66-1.98-1-.04-1.46-.01-2.91-.02-4.35,0-1.45,0-2.89,0-4.34v-8.66c-.18-.1-.36-.21-.54-.3-.94-.48-1.87-.96-2.81-1.44-.16-.08-.32-.18-.49-.27v-5.06c.18-.1.36-.2.54-.29,1.4-.69,2.8-1.37,4.2-2.06.31-.16.58-.17.9-.01,1.46.7,2.92,1.38,4.39,2.05.37.17.49.39.49.78,0,.9.02,1.8.02,2.71.02,2.46.04,4.92.04,7.38,0,.98-.05,1.95-.05,2.93,0,.35-.14.55-.44.7-.6.32-1.17.69-1.77.99-.36.18-.46.42-.45.8.02,1.58,0,3.16,0,4.73,0,.11-.01.23,0,.34.05.4-.11.62-.5.75-.73.25-1.44.55-2.15.84-.1.04-.19.1-.34.18Z"/>
  <path d="M17.21,12.49c0,.1,0,.19,0,.28,0,.07.02.14.03.23.49.02.81-.29,1.2-.52.02-.62.07-1.24-.02-1.85-.1-.64.12-1.15.63-1.53.3-.22.62-.41,1-.48.17.18.14.39.15.59,0,.62,0,1.24.01,1.86,0,.2-.04.41.07.61.07-.01.13-.01.17-.03.15-.08.29-.17.44-.26.13-.53-.06-1.1.19-1.64.07,0,.15-.01.22,0q.72.13.82.86c0,.07.04.13.08.24.2-.07.38-.12.54-.19.99-.45,1.98-.9,2.97-1.35,3.86-1.75,7.73-3.51,11.59-5.26.26-.12.51-.24.78-.32.21-.07.44-.11.66-.11.47.01.76.3.83.76.03.2.02.39-.17.5-.31.18-.35.45-.36.77,0,1.41-.02,2.82-.02,4.23,0,.79,0,1.58.02,2.37.02.77.06,1.54.08,2.31,0,.24.04.45.25.59.17.12.21.3.21.49,0,.38,0,.75,0,1.13,0,.31-.11.55-.41.67-.61.24-.86.69-.77,1.34,0,.05,0,.11-.02.17,0,.04-.03.07-.06.14-.15.05-.33.1-.5.18-.34.16-.45.42-.32.73.16.38.45.52.81.37.14-.05.26-.15.38-.24.12-.09.22-.2.38-.35.03.16.07.26.06.35-.1.8-.85,1.22-1.58.9-.92-.4-1.13-1.38-.44-2.12.11-.12.24-.23.38-.33.22-.16.25-.36.13-.63-.31-.02-.64-.04-.98-.06-.05-.09-.1-.17-.13-.26-.14-.48-.13-.97-.09-1.45.03-.33.16-.62.44-.82.16-.11.2-.26.19-.44,0-.09,0-.19,0-.28,0-2.65,0-5.3,0-7.95v-.52c-.25-.07-.42.07-.6.15-1.86.85-3.72,1.7-5.58,2.55-2.72,1.24-5.43,2.48-8.15,3.73-.19.09-.37.18-.6.28,0,.2-.02.4-.02.6,0,1.99,0,3.98,0,5.97,0,.75.13.65-.68,1.04-.07.03-.14.04-.2.06-.21-.1-.27-.28-.29-.47-.01-.15,0-.3,0-.45,0-1.82,0-3.64-.01-5.47,0-.17-.02-.33-.02-.49-.46-.09-.64.02-.69.41-.02.17-.01.34-.01.51,0,1.94-.02,3.87.01,5.81,0,.5-.18.77-.6.96-.36.16-.72.31-1.1.42-.16-.21-.11-.42-.12-.62,0-1.94,0-3.87,0-5.81,0-.2,0-.41,0-.66-.4.03-.69.19-.97.36-.14.09-.18.24-.16.4.05.51-.21.81-.65.99-.24.1-.47.23-.71.35-.34.18-.71.27-1.08.28-.49.02-.98.02-1.46,0-.49-.02-.67-.2-.72-.69,0-.09-.01-.19-.01-.28,0-.68,0-1.35,0-2.03,0-.5.17-.86.66-1.06.49-.2.95-.44,1.44-.65.28-.12.57-.16.88-.09.22.05.45.04.67.04.3,0,.6,0,.94.2ZM38.25,5.6c-.38.03-.49.2-.5.49,0,.3-.05.6-.05.9,0,1.41-.02,2.82,0,4.22.01,1.11.06,2.21.1,3.32,0,.16-.04.35.13.46.38-.13.39-.13.39-.49,0-2.85,0-5.71,0-8.56,0-.11-.04-.21-.06-.34Z"/>
  <path d="M27.49,23.82c-.64-.41-4.51-2.21-4.94-2.3-.02.08-.07.16-.07.25-.01.19,0,.38,0,.56,0,5.31,0,10.63,0,15.94v.75c-.22.05-.4.11-.58.14-1.05.15-2.06.44-3.01.9-.31.15-.59.19-.9,0-.21-.12-.43-.22-.65-.33v-17.08c1.67-.8,3.36-1.56,5.05-2.35.47.23.93.45,1.38.67,1.4.68,2.79,1.38,4.2,2.05.33.16.47.36.47.73,0,1.16.02,2.33.03,3.49.02,4.06.05,8.11.07,12.17,0,.22,0,.44-.02.69-.38,0-.64-.2-.92-.34-.02-.12-.05-.23-.06-.34-.01-.17,0-.34,0-.51,0-4.83-.01-9.65-.02-14.48,0-.22-.01-.45-.02-.64Z"/>
  <path d="M38.21,30.32c-1.52.7-2.93,1.46-4.36,2.11-.35-.54-.31-.76.14-1.06.09-.06.2-.11.29-.17,1.19-.64,2.38-1.28,3.57-1.93.35-.19.66-.2,1.01-.03,1.47.72,2.94,1.43,4.41,2.13.25.12.37.26.37.55,0,2.4,0,4.81,0,7.21,0,.09-.03.18-.04.27-.08,0-.14.02-.19,0-1.72-.88-3.44-1.76-5.2-2.66-.02-.28-.03-.58-.05-.89-.26-.04-.44.12-.63.2-.2.08-.38.21-.64.13-.12-.04-.29.04-.43.1-.75.29-1.5.59-2.25.88-.17.07-.35.12-.56.19-.13-.3-.1-.58-.04-.84.03-.12.18-.23.3-.3.48-.26.97-.5,1.46-.74.76-.38,1.52-.75,2.28-1.12.12-.06.24-.11.35-.18.19-.12.29-.29.25-.52-.04-.2-.06-.4-.1-.66-.77.32-1.48.7-2.21,1.04-.73.34-1.44.7-2.19,1.05-.27-.48-.19-.93-.13-1.37.01-.09.13-.18.22-.24.24-.14.49-.27.75-.4.92-.46,1.85-.92,2.78-1.37.13-.07.27-.13.4-.2.3-.14.46-.37.43-.72,0-.13,0-.26,0-.49Z"/>
  <path d="M46.09,38.32c-.77.1-1.32.7-2.11.73-.02-.16-.04-.31-.06-.45-.03-.21.06-.36.24-.46.23-.12.46-.26.69-.37.44-.21.88-.41,1.3-.61.71.26,5.13,2.47,5.47,2.73v8.01q-.39.22-.89.15c-.04-.14-.1-.3-.13-.46-.55-2.59-1.88-4.67-3.98-6.27-.07-.06-.15-.12-.23-.17-.22-.13-.3-.31-.29-.56.01-.56,0-1.13,0-1.69,0-.18-.01-.37-.02-.58Z"/>
  <path d="M12.7,48.09c-.43.04-.84.03-1.26-.05-.02-.12-.06-.22-.06-.33,0-1.73,0-3.45,0-5.18,0-.25.08-.42.29-.56,1.26-.82,2.51-1.64,3.77-2.47.19-.12.36-.16.58-.06.61.29,1.23.56,1.84.84.06.03.11.09.17.13-.43.45-.49.47-.96.26-.34-.15-.68-.3-1.08-.48-.02.23-.04.39-.04.55,0,.3-.02.6,0,.9.03.35-.1.61-.36.84-.51.45-.91.97-1.26,1.56-.45.76-.87,1.54-1.14,2.38-.17.53-.31,1.08-.48,1.68Z"/>
  <path d="M36.05,21.19c.14.06.28.1.4.17,1.58.9,3.16,1.81,4.74,2.7.27.15.41.33.41.66-.01,1.61,0,3.23,0,4.84,0,.15-.03.29-.04.43-.54.02-.75-.14-.75-.6,0-1.03,0-2.06,0-3.1,0-.49,0-.97,0-1.48-.18-.11-.35-.23-.53-.33-1.28-.74-2.57-1.48-3.85-2.22-.51-.29-.55-.4-.36-1.08Z"/>
  <path d="M26.96,36.7c.07.48.22.91-.08,1.33-.44-.02-.79-.25-1.13-.46-.08-.05-.15-.18-.16-.28-.04-.37-.07-.74.06-1.13.49.06.86.35,1.32.54Z"/>
  <path d="M23.26,32.52c.37.17.73.33,1.07.51.1.05.19.19.2.3.03.35,0,.7,0,1.1-.16-.03-.26-.03-.36-.06-.19-.07-.37-.18-.57-.24-.44-.13-.58-.42-.54-.85.02-.24-.04-.49.19-.77Z"/>
  <path d="M24.44,32.05c-.48-.2-.91-.4-1.32-.66-.05-.43-.14-.83.08-1.23.29-.07.51.09.73.21.61.34.62.34.61,1.04,0,.2.05.41-.11.64Z"/>
  <path d="M23.22,22.69c.41.19.75.36,1.08.51.15.07.24.17.25.34.01.35.03.7-.03,1.09-.49-.06-.87-.29-1.26-.48-.06-.03-.11-.11-.12-.18-.07-.4-.1-.8.09-1.28Z"/>
  <path d="M25.58,23.92c.52.08.88.31,1.26.49.08.04.15.17.17.27.08.37.1.73-.1,1.12-.45-.07-.82-.32-1.21-.52-.07-.03-.12-.15-.12-.23-.01-.35,0-.7,0-1.13Z"/>
  <path d="M23.21,27.66c.46.05.79.28,1.12.48.09.05.16.17.18.27.11.37.1.74-.12,1.09-.41-.06-.75-.25-1.08-.45-.07-.04-.15-.13-.17-.21-.09-.38-.14-.77.07-1.17Z"/>
  <path d="M26.91,33.16c-.16-.06-.3-.1-.43-.15-.29-.12-.57-.26-.89-.41,0-.33,0-.65,0-.96,0-.11.03-.21.06-.35.46.07.83.28,1.2.48.11.06.17.24.2.38.06.33.01.66-.13,1.01Z"/>
  <path d="M26.89,35.63c-.42-.11-.76-.34-1.13-.52-.07-.04-.16-.13-.16-.21-.02-.39-.07-.77.03-1.18.45.08.82.3,1.21.49.05.02.09.07.11.12.13.43.21.87-.06,1.3Z"/>
  <path d="M25.61,28.81c.46.1.8.26,1.11.45.11.07.2.22.26.35.12.29.1.5-.03.96-.09,0-.21.05-.31.02-.23-.07-.46-.16-.69-.24-.26-.1-.39-.27-.37-.56.02-.3.01-.59.02-.97Z"/>
  <path d="M25.65,26.27c.43.22.8.39,1.16.59.08.05.15.17.18.27.13.36.09.63-.13,1.09-.41-.06-.76-.29-1.12-.46-.07-.03-.13-.15-.14-.23-.01-.39-.06-.78.05-1.26Z"/>
  <path d="M23.23,25.25c.4.04.71.22,1.02.39.21.12.33.31.34.55.02.32,0,.63-.17.93-.42-.09-.76-.33-1.12-.52-.06-.03-.12-.11-.13-.17-.1-.38-.16-.76.06-1.18Z"/>
  <path d="M24.5,36.95c-.41-.17-.73-.29-1.03-.43-.22-.1-.33-.3-.37-.53-.05-.3-.05-.59.04-.91.38-.07.65.15.95.28.31.14.47.34.43.7-.03.26-.01.52-.02.9Z"/>
  <path d="M16.16,40.54c.43.07.43.07.45.37.02.36.04.72-.44.88-.1-.43-.09-.84,0-1.25Z"/>
  <path d="M17.04,41.15c-.03-.09-.07-.14-.06-.17.02-.04.07-.08.11-.08.03,0,.1.08.09.09-.03.05-.08.09-.14.17Z"/>
</svg>