<svg width="952" height="396" viewBox="0 0 952 396" fill="none" xmlns="http://www.w3.org/2000/svg">
<g clip-path="url(#clip0_136_6)">
<g opacity="0.35">
<path d="M417 165C419.209 165 421 163.209 421 161C421 158.791 419.209 157 417 157C414.791 157 413 158.791 413 161C413 163.209 414.791 165 417 165Z" fill="white"/>
<path opacity="0.5" d="M515 118C516.105 118 517 117.105 517 116C517 114.895 516.105 114 515 114C513.895 114 513 114.895 513 116C513 117.105 513.895 118 515 118Z" fill="white"/>
<path opacity="0.5" d="M423 283C425.209 283 427 281.209 427 279C427 276.791 425.209 275 423 275C420.791 275 419 276.791 419 279C419 281.209 420.791 283 423 283Z" fill="white"/>
<path opacity="0.3" d="M366 396C367.105 396 368 395.105 368 394C368 392.895 367.105 392 366 392C364.895 392 364 392.895 364 394C364 395.105 364.895 396 366 396Z" fill="white"/>
<path d="M265 329C266.105 329 267 328.105 267 327C267 325.895 266.105 325 265 325C263.895 325 263 325.895 263 327C263 328.105 263.895 329 265 329Z" fill="white"/>
<path opacity="0.2" d="M362 211C363.105 211 364 210.105 364 209C364 207.895 363.105 207 362 207C360.895 207 360 207.895 360 209C360 210.105 360.895 211 362 211Z" fill="white"/>
<path opacity="0.3" d="M548 213C549.105 213 550 212.105 550 211C550 209.895 549.105 209 548 209C546.895 209 546 209.895 546 211C546 212.105 546.895 213 548 213Z" fill="white"/>
<path opacity="0.2" d="M607 283C608.105 283 609 282.105 609 281C609 279.895 608.105 279 607 279C605.895 279 605 279.895 605 281C605 282.105 605.895 283 607 283Z" fill="white"/>
<path opacity="0.21" d="M789 283C790.105 283 791 282.105 791 281C791 279.895 790.105 279 789 279C787.895 279 787 279.895 787 281C787 282.105 787.895 283 789 283Z" fill="white"/>
<path d="M362 67C363.105 67 364 66.1046 364 65C364 63.8954 363.105 63 362 63C360.895 63 360 63.8954 360 65C360 66.1046 360.895 67 362 67Z" fill="white"/>
<path opacity="0.3" d="M192 134C193.105 134 194 133.105 194 132C194 130.895 193.105 130 192 130C190.895 130 190 130.895 190 132C190 133.105 190.895 134 192 134Z" fill="white"/>
<path d="M743 4C744.105 4 745 3.10457 745 2C745 0.89543 744.105 0 743 0C741.895 0 741 0.89543 741 2C741 3.10457 741.895 4 743 4Z" fill="white"/>
</g>
<path d="M834 150C827.373 150 822 144.627 822 138C822 131.373 827.373 126 834 126C840.627 126 846 131.373 846 138C846 144.627 840.627 150 834 150Z" fill="white"/>
<path d="M4 206C1.79086 206 0 204.209 0 202C0 199.791 1.79086 198 4 198C6.20914 198 8 199.791 8 202C8 204.209 6.20914 206 4 206Z" fill="white"/>
<path d="M948 206C945.791 206 944 204.209 944 202C944 199.791 945.791 198 948 198C950.209 198 952 199.791 952 202C952 204.209 950.209 206 948 206Z" fill="white"/>
<path d="M154 326C149.582 326 146 322.418 146 318C146 313.582 149.582 310 154 310C158.418 310 162 313.582 162 318C162 322.418 158.418 326 154 326Z" fill="white"/>
</g>
<defs>
<clipPath id="clip0_136_6">
<rect width="952" height="396" fill="white"/>
</clipPath>
</defs>
</svg>
