<svg width="223" height="36" viewBox="0 0 223 36" fill="none" xmlns="http://www.w3.org/2000/svg">
<path d="M26.216 1.304V7.88H17.288V35H9.08V7.88H0.152V1.304H26.216ZM38.5434 7.88V14.696H49.5354V21.032H38.5434V28.424H50.9754V35H30.3354V1.304H50.9754V7.88H38.5434ZM64.5121 28.664H75.2641V35H56.3041V1.304H64.5121V28.664ZM87.3871 7.88V14.696H98.3791V21.032H87.3871V28.424H99.8191V35H79.1791V1.304H99.8191V7.88H87.3871ZM117.34 35.336C114.876 35.336 112.668 34.936 110.716 34.136C108.764 33.336 107.196 32.152 106.012 30.584C104.86 29.016 104.252 27.128 104.188 24.92H112.924C113.052 26.168 113.484 27.128 114.22 27.8C114.956 28.44 115.916 28.76 117.1 28.76C118.316 28.76 119.276 28.488 119.98 27.944C120.684 27.368 121.036 26.584 121.036 25.592C121.036 24.76 120.748 24.072 120.172 23.528C119.628 22.984 118.94 22.536 118.108 22.184C117.308 21.832 116.156 21.432 114.652 20.984C112.476 20.312 110.7 19.64 109.324 18.968C107.948 18.296 106.764 17.304 105.772 15.992C104.78 14.68 104.284 12.968 104.284 10.856C104.284 7.72 105.42 5.272 107.692 3.512C109.964 1.72 112.924 0.823999 116.572 0.823999C120.284 0.823999 123.276 1.72 125.548 3.512C127.82 5.272 129.036 7.736 129.196 10.904H120.316C120.252 9.816 119.852 8.968 119.116 8.36C118.38 7.72 117.436 7.4 116.284 7.4C115.292 7.4 114.492 7.672 113.884 8.216C113.276 8.728 112.972 9.48 112.972 10.472C112.972 11.56 113.484 12.408 114.508 13.016C115.532 13.624 117.132 14.28 119.308 14.984C121.484 15.72 123.244 16.424 124.588 17.096C125.964 17.768 127.148 18.744 128.14 20.024C129.132 21.304 129.628 22.952 129.628 24.968C129.628 26.888 129.132 28.632 128.14 30.2C127.18 31.768 125.772 33.016 123.916 33.944C122.06 34.872 119.868 35.336 117.34 35.336ZM150.615 35.336C147.447 35.336 144.535 34.6 141.879 33.128C139.255 31.656 137.159 29.608 135.591 26.984C134.055 24.328 133.287 21.352 133.287 18.056C133.287 14.76 134.055 11.8 135.591 9.176C137.159 6.552 139.255 4.504 141.879 3.032C144.535 1.56 147.447 0.823999 150.615 0.823999C153.783 0.823999 156.679 1.56 159.303 3.032C161.959 4.504 164.039 6.552 165.543 9.176C167.079 11.8 167.847 14.76 167.847 18.056C167.847 21.352 167.079 24.328 165.543 26.984C164.007 29.608 161.927 31.656 159.303 33.128C156.679 34.6 153.783 35.336 150.615 35.336ZM150.615 27.848C153.303 27.848 155.447 26.952 157.047 25.16C158.679 23.368 159.495 21 159.495 18.056C159.495 15.08 158.679 12.712 157.047 10.952C155.447 9.16 153.303 8.264 150.615 8.264C147.895 8.264 145.719 9.144 144.087 10.904C142.487 12.664 141.687 15.048 141.687 18.056C141.687 21.032 142.487 23.416 144.087 25.208C145.719 26.968 147.895 27.848 150.615 27.848ZM194.35 1.304V7.88H180.622V14.984H190.894V21.368H180.622V35H172.414V1.304H194.35ZM222.904 1.304V7.88H213.976V35H205.768V7.88H196.84V1.304H222.904Z" fill="white"/>
</svg>
